HIERARCHY
ROOT root
{
	OFFSET	0	13.1	24.9
	CHANNELS 6  Xposition Yposition Zposition Xrotation Yrotation Zrotation
	JOINT spine_1
	{
		OFFSET	0	9.99999	0
		CHANNELS 3  Xrotation Yrotation Zrotation
		JOINT spine_2
		{
			OFFSET	0	112	-10
			CHANNELS 3  Xrotation Yrotation Zrotation
			JOINT spine_3
			{
				OFFSET	0	206.5	19.3
				CHANNELS 3  Xrotation Yrotation Zrotation
				JOINT spine_4
				{
					OFFSET	0	110.4	14.6
					CHANNELS 3  Xrotation Yrotation Zrotation
					JOINT neck_1
					{
						OFFSET	0	71.8	-50.3
						CHANNELS 3  Xrotation Yrotation Zrotation
						JOINT neck_2
						{
							OFFSET	0	86.2	-25.8
							CHANNELS 3  Xrotation Yrotation Zrotation
							JOINT head_ee
							{
								OFFSET	0	179.8	-8.7
								CHANNELS 3  Xrotation Yrotation Zrotation
								End Site
								{
									OFFSET	1	0	0
								}
							}
						}
					}
					JOINT left_clavicle
					{
						OFFSET	-43.2	22.4	-70.8
						CHANNELS 3  Xrotation Yrotation Zrotation
						JOINT left_shoulder
						{
							OFFSET	-93.9	-5.79999	48.7
							CHANNELS 3  Xrotation Yrotation Zrotation
							JOINT left_elbow
							{
								OFFSET	-291.4	-30.8	15.2
								CHANNELS 3  Xrotation Yrotation Zrotation
								JOINT left_lowarm_twist
								{
									OFFSET	-110.7	-3.89999	13.6
									CHANNELS 3  Xrotation Yrotation Zrotation
									JOINT left_hand
									{
										OFFSET	-110.7	-3.89999	13.6
										CHANNELS 3  Xrotation Yrotation Zrotation
										JOINT left_ee
										{
											OFFSET	-80.8	-5.10001	12.1
											CHANNELS 3  Xrotation Yrotation Zrotation
											End Site
											{
												OFFSET	1	0	0
											}
										}
									}
								}
							}
						}
					}
					JOINT right_clavicle
					{
						OFFSET	43.2	22.4	-70.8
						CHANNELS 3  Xrotation Yrotation Zrotation
						JOINT right_shoulder
						{
							OFFSET	93.9	-5.79999	48.7
							CHANNELS 3  Xrotation Yrotation Zrotation
							JOINT right_elbow
							{
								OFFSET	291.4	-30.8	15.2
								CHANNELS 3  Xrotation Yrotation Zrotation
								JOINT right_lowarm_twist
								{
									OFFSET	110.7	-3.89999	13.6
									CHANNELS 3  Xrotation Yrotation Zrotation
									JOINT right_hand
									{
										OFFSET	110.7	-3.89999	13.6
										CHANNELS 3  Xrotation Yrotation Zrotation
										JOINT right_ee
										{
											OFFSET	80.8	-5.10001	12.1
											CHANNELS 3  Xrotation Yrotation Zrotation
											End Site
											{
												OFFSET	1	0	0
											}
										}
									}
								}
							}
						}
					}
				}
			}
		}
	}
	JOINT left_hip
	{
		OFFSET	-82.8	-127.5	0.300001
		CHANNELS 3  Xrotation Yrotation Zrotation
		JOINT left_knee
		{
			OFFSET	-28.2	-396.7	2.2
			CHANNELS 3  Xrotation Yrotation Zrotation
			JOINT left_ankle
			{
				OFFSET	-11.7	-411.3	35.4
				CHANNELS 3  Xrotation Yrotation Zrotation
				JOINT left_toes
				{
					OFFSET	0	-60	-88.6
					CHANNELS 3  Xrotation Yrotation Zrotation
					JOINT left_foot_ee
					{
						OFFSET	-22.5	-16.5	-42.2
						CHANNELS 3  Xrotation Yrotation Zrotation
						End Site
						{
							OFFSET	1	0	0
						}
					}
				}
			}
		}
	}
	JOINT right_hip
	{
		OFFSET	82.8	-127.5	0.300001
		CHANNELS 3  Xrotation Yrotation Zrotation
		JOINT right_knee
		{
			OFFSET	28.2	-396.7	2.2
			CHANNELS 3  Xrotation Yrotation Zrotation
			JOINT right_ankle
			{
				OFFSET	11.7	-411.3	35.4
				CHANNELS 3  Xrotation Yrotation Zrotation
				JOINT right_toes
				{
					OFFSET	0	-60	-88.6
					CHANNELS 3  Xrotation Yrotation Zrotation
					JOINT right_foot_ee
					{
						OFFSET	22.5	-16.5	-42.2
						CHANNELS 3  Xrotation Yrotation Zrotation
						End Site
						{
							OFFSET	1	0	0
						}
					}
				}
			}
		}
	}
}
MOTION
Frames: 12
Frame Time: 0.02
2838.29699426 694.724 -1675.5446432 7.24696900115 57.2383258436 -0.325283458455 1.26343 -0.390786 -2.42869 1.26668 -0.235498 -2.44862 1.27735 0.229931 -2.44915 1.26902 -0.159632 -2.45473 -21.4104 20.9108 11.8644 -23.147 34.7168 20.8982 -0.0 0.0 -0.0 3.83591 11.9113 7.86213 -5.70926 -26.4598 59.6054 1.70837 -40.237 0.62584 -20.5482 -1.15769 2.34451 0.175799 16.1077 7.66375 -0.0 0.0 -0.0 3.99556 4.49042 -7.46028 -18.6525 39.8187 -59.4526 0.529673 14.7023 -0.0683338 -22.9364 1.34493 -2.58643 2.59827 16.8105 -10.2665 0.0 0.0 0.0 3.09435 -6.30837 -3.83015 -13.907 0.318455 2.10523 27.1274 17.7952 -3.64428 -9.75104 0.0 0.0 -0.0 0.0 -0.0 25.8944 26.4671 -18.146 -58.1464 2.00319 -8.31807 -22.6569 5.74467 -3.51859 -38.9802 0.0 0.0 0.0 0.0 0.0 
2827.07025913 694.264 -1653.52557356 7.12784276051 59.3241689566 -0.593196210656 1.16458 -0.408028 -2.46762 1.16793 -0.25023 -2.48856 1.17953 0.227234 -2.49077 1.17091 -0.168862 -2.4954 -22.5589 20.5319 12.3476 -24.3322 33.9973 21.5721 -0.0 0.0 -0.0 3.80718 11.0157 7.78953 -4.60997 -26.9845 58.9279 1.81269 -41.9184 0.694395 -20.5972 -1.16143 2.34955 0.200175 15.7552 7.68023 -0.0 0.0 -0.0 3.83143 5.48842 -7.06714 -19.472 39.4103 -59.1221 0.460975 12.8633 -0.0519649 -22.4934 1.30944 -2.54215 2.60058 16.6812 -10.3433 0.0 0.0 0.0 2.92828 -6.50976 -3.14896 -13.8551 0.318222 2.09726 27.0317 16.3241 -3.61587 -10.1899 0.0 0.0 -0.0 0.0 -0.0 29.0007 24.2501 -19.8589 -56.1558 1.79949 -8.08849 -22.1084 5.20607 -3.42526 -39.2633 0.0 0.0 0.0 0.0 0.0 
2819.94113914 693.934 -1631.24770436 6.32489576685 61.8429620506 0.00278029254281 1.22491 -0.483919 -2.9081 1.22956 -0.297969 -2.93297 1.24575 0.261444 -2.93645 1.23378 -0.205388 -2.9409 -22.7121 20.4323 12.4889 -24.4628 33.7733 21.6952 -0.0 0.0 -0.0 3.78129 10.1744 7.72042 -3.77351 -27.3282 57.9687 1.89436 -43.1757 0.749622 -20.6646 -1.16658 2.35648 0.225208 15.3847 7.69432 -0.0 0.0 -0.0 3.69959 6.1716 -6.75476 -20.2775 39.0074 -58.6083 0.408495 11.4399 -0.0409171 -22.2177 1.28753 -2.51445 2.62583 16.53 -10.5861 0.0 0.0 0.0 2.87717 -6.5438 -2.88465 -13.0357 0.313595 1.97162 27.2631 16.5506 -3.64498 -10.4825 0.0 0.0 -0.0 0.0 -0.0 31.1234 23.2643 -20.5566 -54.7774 1.66321 -7.92549 -21.6138 5.0589 -3.3464 -39.6808 0.0 0.0 0.0 0.0 0.0 
2800.89825578 696.203 -1604.69211352 4.96599169162 66.4046994922 1.3057541917 1.25759 -0.378913 -2.96669 1.26247 -0.189453 -2.98477 1.27315 0.376525 -2.96699 1.26088 -0.0965643 -2.98921 -21.46 21.3427 11.744 -23.3515 35.6166 21.0812 -0.0 0.0 -0.0 3.67648 12.4558 7.60739 -2.95002 -28.2818 57.4811 2.1725 -47.0957 0.94688 -23.2923 -1.3737 2.62182 0.186615 13.9924 6.91528 -0.0 0.0 -0.0 3.21049 5.90821 -5.7823 -21.7171 38.0554 -59.2186 0.368045 10.3328 -0.0332772 -21.6668 1.24414 -2.45879 2.89555 18.6101 -11.4126 0.0 0.0 0.0 3.21849 -2.32316 -2.75759 -12.7075 0.311239 1.92133 28.2907 16.2124 -3.75818 -10.9824 0.0 0.0 -0.0 0.0 -0.0 31.4328 17.4715 -18.1992 -54.1757 1.60495 -7.85332 -21.3259 6.17368 -3.31813 -40.0909 0.0 0.0 0.0 0.0 0.0 
2770.24160144 694.726 -1570.43721426 1.34077883468 70.3017378978 5.24034274449 1.43003 -0.675357 -3.41871 1.43642 -0.45658 -3.4547 1.46498 0.190769 -3.47949 1.44827 -0.360807 -3.466 -19.184 21.7601 10.5023 -20.9076 36.5586 19.2656 -0.0 0.0 -0.0 4.9681 15.2651 9.76538 -1.95544 -28.7376 55.2166 2.44401 -50.4364 1.15115 -25.8344 -1.5855 2.8693 0.131775 11.0174 5.39607 -0.0 0.0 -0.0 2.08464 5.87103 -3.51059 -24.1884 36.4527 -58.9005 0.36196 10.1656 -0.0321946 -20.4285 1.14857 -2.33218 3.33688 20.3668 -13.5184 0.0 0.0 0.0 1.57433 5.83446 -1.5451 -8.2287 0.250325 1.23696 31.2717 15.2804 -4.07552 -12.8927 0.0 0.0 -0.0 0.0 -0.0 36.76 11.9069 -14.5408 -46.0518 0.895957 -6.8238 -20.8971 8.69066 -3.29278 -39.9748 0.0 0.0 0.0 0.0 0.0 
2759.0059689 693.573 -1545.49936916 -1.56353067435 73.7932628782 7.97489078441 1.55444 -0.723349 -3.58605 1.56145 -0.493847 -3.62474 1.59359 0.177372 -3.65389 1.57519 -0.401527 -3.63611 -17.0322 22.1654 9.75345 -18.5083 37.2696 17.8954 -0.0 0.0 -0.0 5.44703 15.576 10.5382 -0.0694268 -29.1435 56.4907 2.76494 -53.8569 1.40466 -27.0857 -1.69376 2.98765 0.213696 10.2886 5.63128 -0.0 0.0 -0.0 1.6008 5.83942 -2.53718 -25.1201 35.3231 -59.0167 0.29531 8.32282 -0.0214862 -19.5573 1.08301 -2.24191 3.53248 21.1421 -14.4404 0.0 0.0 0.0 0.327707 5.51407 -0.477674 -4.61347 0.162268 0.689245 31.1328 14.9051 -4.05641 -14.97 0.0 0.0 -0.0 0.0 -0.0 37.8861 10.6662 -13.1233 -42.7793 0.652989 -6.38292 -22.1832 9.71431 -3.51603 -39.6813 0.0 0.0 0.0 0.0 0.0 
2747.86994111 688.386 -1527.97938887 -0.148011659018 76.7861102384 6.0405292267 1.48286 -0.82798 -3.71512 1.49034 -0.590071 -3.76019 1.53027 0.111573 -3.8045 1.51041 -0.490241 -3.77448 -15.906 22.1866 9.1009 -17.2366 37.4172 16.8561 -0.0 0.0 -0.0 5.99389 15.5304 11.4311 0.981786 -29.3679 56.4022 2.58191 -51.9709 1.25863 -27.8177 -1.75828 3.05578 0.0696232 11.2856 5.10603 -0.0 0.0 -0.0 1.13116 5.60145 -1.61403 -26.2495 34.1543 -58.8674 0.359752 10.1048 -0.0318059 -18.3141 0.991843 -2.11139 3.60106 22.0904 -14.404 0.0 0.0 0.0 0.106855 8.72045 0.029971 -6.80493 0.219775 1.02062 32.9402 13.9129 -4.23614 -16.196 0.0 0.0 -0.0 0.0 -0.0 39.0693 8.84077 -11.7471 -38.3936 0.367747 -5.77209 -22.334 7.00662 -3.48905 -39.3651 0.0 0.0 0.0 0.0 0.0 
2732.47572452 687.172 -1523.94767446 1.0795777153 76.8841977725 4.19284768084 1.4387 -0.617188 -3.78003 1.44657 -0.375583 -3.81158 1.47264 0.336185 -3.81525 1.45243 -0.27013 -3.82049 -16.2158 22.0357 8.39782 -17.6675 37.5869 16.3119 -0.0 0.0 -0.0 6.071 15.8011 11.546 1.37605 -29.7589 56.6025 2.84695 -54.6503 1.47123 -27.729 -1.75041 3.04756 0.261726 9.43756 5.6022 -0.0 0.0 -0.0 0.885415 4.19032 -1.26809 -26.6354 35.1324 -58.9035 0.304481 8.57751 -0.022834 -19.823 1.10286 -2.26954 3.50495 20.3359 -14.6737 0.0 0.0 0.0 -0.0809757 12.5937 0.454447 -9.68111 0.275939 1.45836 37.5719 14.3957 -4.70043 -15.8097 0.0 0.0 -0.0 0.0 -0.0 36.4887 9.75504 -10.9875 -27.5978 -0.128555 -4.19248 -20.3867 10.414 -3.24407 -40.2085 0.0 0.0 0.0 0.0 0.0 
2714.74867061 688.159 -1517.08305317 4.28634513958 77.7113826854 0.549012273514 1.25952 -0.486691 -3.76346 1.26737 -0.246402 -3.78675 1.28496 0.471164 -3.76543 1.2652 -0.128985 -3.79256 -16.4601 21.8622 8.29198 -17.939 37.3611 16.2418 -0.0 0.0 -0.0 6.069 15.8269 11.5417 1.86176 -30.6523 57.3679 2.95126 -55.6164 1.55681 -27.1732 -1.70142 2.99583 0.357969 8.62735 5.9032 -0.0 0.0 -0.0 0.348 2.56924 -0.379971 -27.774 35.2212 -58.1164 0.388561 10.8954 -0.0370562 -19.7706 1.09893 -2.2641 3.35549 19.5598 -14.0566 0.0 0.0 0.0 0.285466 16.8519 0.797669 -15.2499 0.321964 2.31122 38.9995 14.6853 -4.83729 -17.4375 0.0 0.0 -0.0 0.0 -0.0 34.8667 10.6685 -10.0565 -19.2929 -0.303382 -2.93114 -14.4327 10.3918 -2.28869 -39.0366 0.0 0.0 0.0 0.0 0.0 
2690.02082414 682.804 -1520.2058645 4.47356185506 76.9288481471 0.0573282310414 1.17012 -0.407092 -3.79385 1.17811 -0.165034 -3.81203 1.1905 0.562252 -3.77401 1.17063 -0.0403875 -3.81539 -16.6844 21.5646 7.60857 -18.2282 37.2067 15.6016 -0.0 0.0 -0.0 6.02974 16.5946 11.4454 2.37113 -31.268 57.959 3.06103 -56.5841 1.64792 -27.5249 -1.73236 3.02862 0.427554 8.04818 6.12579 -0.0 0.0 -0.0 0.0879267 1.45275 0.00128583 -28.7322 35.259 -57.6428 0.396244 11.1055 -0.0385222 -19.9058 1.10907 -2.27813 3.31056 19.0337 -14.0178 0.0 0.0 0.0 0.0748193 19.8266 0.772156 -19.0812 0.30544 2.89872 41.6797 14.7378 -5.0763 -17.0895 0.0 0.0 -0.0 0.0 -0.0 34.1112 11.4176 -9.1371 -13.1671 -0.314458 -1.99176 -12.5334 10.3851 -1.98358 -39.28 0.0 0.0 0.0 0.0 0.0 
2660.0222813 677.137 -1515.06247656 7.28398716443 78.0458306599 -3.53795206264 1.04335 -0.280169 -3.62989 1.05067 -0.0487778 -3.64034 1.05516 0.652393 -3.58181 1.03727 0.0789155 -3.63981 -16.959 21.2432 7.3773 -18.5155 36.7638 15.358 -0.0 0.0 -0.0 5.89998 16.7736 11.2296 2.93869 -32.2714 59.342 3.21587 -57.8695 1.77812 -27.7742 -1.75443 3.05176 0.523873 7.23054 6.43054 -0.0 0.0 -0.0 -0.0400806 0.0671636 0.0853302 -29.3394 35.548 -57.8509 0.423944 11.8605 -0.0440367 -19.9186 1.11003 -2.27947 3.17486 17.861 -13.679 0.0 0.0 0.0 -0.819957 21.4969 0.880977 -23.9512 0.227845 3.64175 41.6381 14.8951 -5.07516 -17.6817 0.0 0.0 -0.0 0.0 -0.0 33.2113 12.154 -8.51911 -5.22449 -0.179577 -0.781418 -8.43764 10.4036 -1.32803 -38.7078 0.0 0.0 0.0 0.0 0.0 
2632.63370825 665.384 -1516.94949759 5.09045692055 80.0383038239 -1.45258041466 0.990977 -0.379059 -3.55257 0.997984 -0.152379 -3.56946 1.00904 0.539714 -3.53176 0.99164 -0.024465 -3.57262 -18.4806 21.3994 7.94458 -20.316 37.032 16.5856 -0.0 0.0 -0.0 5.69666 15.1993 10.956 2.82872 -33.4522 59.5276 3.5091 -60.0745 2.02944 -27.0422 -1.68995 2.98358 0.527461 7.60228 6.60114 -0.0 0.0 -0.0 0.12148 -0.427378 -0.284173 -29.2385 36.2769 -59.0788 0.469713 13.0988 -0.0539277 -19.8287 1.10328 -2.27013 3.0148 16.17 -13.4111 0.0 0.0 0.0 -1.36242 19.0674 0.626033 -26.3863 0.165429 4.01022 41.3948 14.8049 -5.05273 -20.122 0.0 0.0 -0.0 0.0 -0.0 33.3712 12.8152 -8.88793 1.67662 0.0726639 0.247007 -5.04542 13.4386 -0.805043 -39.3836 0.0 0.0 0.0 0.0 0.0 
